<?xml version="1.0" encoding="iso-8859-1"?>
<!-- Uploaded to: SVG Repo, www.svgrepo.com, Generator: SVG Repo Mixer Tools -->
<svg fill="#000000" height="800px" width="800px" version="1.1" id="Layer_1" xmlns="http://www.w3.org/2000/svg" xmlns:xlink="http://www.w3.org/1999/xlink" 
	 viewBox="0 0 501.448 501.448" xml:space="preserve">
<g>
	<g>
		<path d="M473.773,432.967c-1.707-3.84-5.547-6.293-9.707-6.293h-128V149.341c0,0-4.8-10.667-10.667-10.667h-60.053
			c24.32-15.68,37.44-34.027,38.613-54.827c2.56-44.587-51.947-80.64-54.187-82.133c-3.733-2.453-8.64-2.24-12.16,0.427
			c-36.267,27.093-53.227,54.72-50.56,82.027c2.56,25.707,21.973,44.16,36.48,55.573H165.4c-5.867-1.067-10.667,9.6-10.667,9.6
			v277.333H37.4c-5.867,0-10.667,4.8-10.667,10.667c0,2.667,0.96,5.12,2.667,7.147l47.467,53.333c2.027,2.24,4.907,3.627,8,3.627
			h331.84c3.093,0,5.973-1.28,8-3.627l47.36-53.333C474.84,441.288,475.48,436.808,473.773,432.967z M208.173,82.034
			c-1.707-18.027,10.347-37.547,36.053-58.133c15.04,11.413,39.787,35.307,38.507,58.667c-0.96,15.893-13.867,30.72-38.613,43.947
			C234.093,120.647,210.413,104.541,208.173,82.034z M176.066,160.007h138.667v266.667H176.066V160.007z M411.906,480.008H89.666
			l-28.48-32h379.2L411.906,480.008z"/>
	</g>
</g>
</svg>